<?xml version="1.0" encoding="utf-8"?>
<!-- Generator: Adobe Illustrator 16.0.0, SVG Export Plug-In . SVG Version: 6.00 Build 0)  -->
<!DOCTYPE svg PUBLIC "-//W3C//DTD SVG 1.1//EN" "http://www.w3.org/Graphics/SVG/1.1/DTD/svg11.dtd">
<svg version="1.1" id="Layer_1" xmlns="http://www.w3.org/2000/svg" xmlns:xlink="http://www.w3.org/1999/xlink" x="0px" y="0px"
	 width="60px" height="60px" viewBox="0 0 60 60" enable-background="new 0 0 60 60" xml:space="preserve">
<path fill="#FFFFFF" d="M10,0h40c5.523,0,10,4.477,10,10v40c0,5.523-4.477,10-10,10H10C4.477,60,0,55.523,0,50V10
	C0,4.477,4.477,0,10,0z"/>
<g>
	<path fill="#006FBA" d="M45.059,36.53c6.924,0,11.935-5.218,12.41-12.123c0.021-0.304,0.031-0.607,0.031-0.91
		c0-8.162-6.082-13.204-15.802-13.204H2.5l7.401,6.863h31.328c5.146,0,7.745,2.339,7.745,6.341c0,3.951-2.6,6.342-7.745,6.342
		h-3.766l7.023,6.691H45.059z"/>
	<polygon fill="#009B5C" points="53.19,49.702 41.467,49.702 13.141,21.671 24.865,21.671 	"/>
	<polygon fill="#006FBA" points="26.285,49.707 16.942,49.707 16.942,40.362 	"/>
</g>
</svg>
