<?xml version="1.0" encoding="utf-8"?>
<!-- Generator: Adobe Illustrator 16.0.0, SVG Export Plug-In . SVG Version: 6.00 Build 0)  -->
<!DOCTYPE svg PUBLIC "-//W3C//DTD SVG 1.1//EN" "http://www.w3.org/Graphics/SVG/1.1/DTD/svg11.dtd">
<svg version="1.1" id="Layer_1" xmlns="http://www.w3.org/2000/svg" xmlns:xlink="http://www.w3.org/1999/xlink" x="0px" y="0px"
	 width="20px" height="20px" viewBox="0 0 20 20" enable-background="new 0 0 20 20" xml:space="preserve">
<path fill="#FFFFFF" d="M13.192,17.013C13.19,17.015,13.195,17.013,13.192,17.013c0-1.047,0-2.076,0-3.106
	c0-0.41-0.055-0.813-0.2-1.197c-0.108-0.288-0.263-0.547-0.512-0.777c0.357-0.063,0.692-0.114,1.022-0.183
	c0.502-0.103,0.986-0.261,1.445-0.491c0.88-0.443,1.538-1.103,1.899-2.022c0.503-1.281,0.628-2.596,0.244-3.935
	c-0.145-0.503-0.4-0.953-0.74-1.352C16.275,3.859,16.263,3.79,16.3,3.675c0.285-0.869,0.16-1.716-0.151-2.551
	c-0.039-0.104-0.11-0.11-0.195-0.112c-0.387-0.007-0.752,0.095-1.109,0.227c-0.526,0.193-1.019,0.458-1.49,0.758
	c-0.104,0.067-0.195,0.088-0.324,0.055C11.573,1.67,10.1,1.665,8.634,1.953C8.118,2.055,7.7,2.032,7.25,1.731
	C6.705,1.367,6.088,1.127,5.428,1.028C5.321,1.013,5.238,1.001,5.172,1L4.97,1.072c-0.05,0.06-0.086,0.163-0.138,0.33
	C4.591,2.173,4.576,2.951,4.789,3.729c0.031,0.114,0.016,0.189-0.06,0.278C4.086,4.765,3.787,5.649,3.773,6.637
	c-0.012,0.786,0.063,1.56,0.312,2.308c0.496,1.496,1.573,2.354,3.053,2.764c0.465,0.13,0.938,0.215,1.457,0.271
	c-0.144,0.157-0.269,0.292-0.359,0.451c-0.142,0.249-0.232,0.518-0.264,0.8c-0.013,0.115-0.061,0.167-0.161,0.207
	c-1.217,0.496-2.292,0.154-2.997-0.951c-0.334-0.523-0.788-0.881-1.408-1.005c-0.192-0.038-0.385-0.043-0.573,0.026
	c-0.164,0.059-0.193,0.162-0.088,0.303c0.075,0.102,0.171,0.182,0.277,0.248c0.61,0.372,0.995,0.932,1.265,1.57
	c0.413,0.982,1.176,1.439,2.2,1.524c0.464,0.038,0.924-0.011,1.388-0.116c0,0.639-0.011,1.349-0.011,1.977
	c0,0,0.031,1.986,2.644,1.986S13.192,17.013,13.192,17.013z"/>
</svg>
