<?xml version="1.0" encoding="utf-8"?>
<!-- Generator: Adobe Illustrator 16.0.0, SVG Export Plug-In . SVG Version: 6.00 Build 0)  -->
<!DOCTYPE svg PUBLIC "-//W3C//DTD SVG 1.1//EN" "http://www.w3.org/Graphics/SVG/1.1/DTD/svg11.dtd">
<svg version="1.1" id="Layer_1" xmlns="http://www.w3.org/2000/svg" xmlns:xlink="http://www.w3.org/1999/xlink" x="0px" y="0px"
	 width="275px" height="60px" viewBox="0 0 275 60" enable-background="new 0 0 275 60" xml:space="preserve">
<g>
	<path d="M56.336,38.645c9.165,0,15.797-6.906,16.428-16.048c0.027-0.401,0.041-0.804,0.041-1.205
		c0-10.804-8.05-17.478-20.918-17.478H0l9.798,9.084h41.468c6.813,0,10.253,3.096,10.253,8.394c0,5.23-3.441,8.395-10.253,8.395
		h-4.985l9.297,8.858H56.336z"/>
	<polygon points="67.101,56.082 51.583,56.082 14.087,18.974 29.605,18.974 	"/>
	<polygon points="31.485,56.086 19.116,56.086 19.116,43.717 	"/>
</g>
<g>
	<path d="M91.414,22.002v21.68h-6.133l-0.02-27.363h14.336c2.031-0.026,3.685,0.566,4.961,1.777c1.289,1.224,1.92,2.91,1.895,5.059
		c-0.026,2.019-0.762,3.757-2.207,5.215l-2.402,2.832c-0.417,0.561-0.476,1.198-0.176,1.914l5.898,10.566h-7.5l-4.551-8.906
		c-1.081-2.213-1.081-3.971,0-5.273l4.492-5.391c0.377-0.442,0.566-0.905,0.566-1.387c0-0.481-0.306-0.723-0.918-0.723H91.414z"/>
	<path d="M120.848,27.881l-6.035,15.781h-6.27l9.668-25.801c0.234-0.508,0.586-0.918,1.055-1.23
		c0.469-0.299,0.989-0.449,1.563-0.449c0.56,0,1.087,0.15,1.582,0.449c0.495,0.313,0.853,0.723,1.074,1.23l9.805,25.82H127
		L120.848,27.881z"/>
	<path d="M142.41,33.135v10.645h-6.191V16.318h6.191v10.918h7.617V16.318h6.191v27.461h-6.191V33.135H142.41z"/>
	<path d="M165.457,16.338v15.371c0,4.18,1.445,6.27,4.336,6.27h0.332c2.891,0,4.336-2.09,4.336-6.27V16.338h6.309v15.371
		c0,8.073-2.884,12.109-8.652,12.109h-4.316c-5.769,0-8.652-4.036-8.652-12.109l0.02-15.371H165.457z"/>
	<path d="M190.027,16.338v21.445h11.406v5.898h-12.559c-3.45,0-5.176-1.855-5.176-5.566V16.338H190.027z"/>
	<path d="M211.316,16.338h6.406v27.344h-6.406V16.338z M227.02,43.682h7.539l-8.203-13.73l8.457-13.613h-7.637l-6.992,11.797
		c-0.286,0.521-0.43,1.113-0.43,1.777c0,0.651,0.137,1.237,0.41,1.758L227.02,43.682z"/>
	<path d="M250.848,22.002v21.68h-6.133l-0.02-27.363h14.336c2.031-0.026,3.685,0.566,4.961,1.777
		c1.289,1.224,1.921,2.91,1.895,5.059c-0.026,2.019-0.762,3.757-2.207,5.215l-2.402,2.832c-0.417,0.561-0.476,1.198-0.176,1.914
		L267,43.682h-7.5l-4.551-8.906c-1.081-2.213-1.081-3.971,0-5.273l4.492-5.391c0.378-0.442,0.566-0.905,0.566-1.387
		c0-0.481-0.306-0.723-0.918-0.723H250.848z"/>
</g>
</svg>
